<?xml version="1.0" standalone="no"?>
<!DOCTYPE svg PUBLIC "-//W3C//DTD SVG 20010904//EN"
 "http://www.w3.org/TR/2001/REC-SVG-20010904/DTD/svg10.dtd">
<svg version="1.0" xmlns="http://www.w3.org/2000/svg"
 width="128.000000pt" height="128.000000pt" viewBox="0 0 128.000000 128.000000"
 preserveAspectRatio="xMidYMid meet">

<g transform="translate(0.000000,128.000000) scale(0.100000,-0.100000)"
fill="#000000" stroke="none">
<path d="M578 1138 c-175 -23 -324 -180 -384 -403 l-21 -80 -67 -6 c-80 -7
-113 -30 -102 -74 10 -39 81 -111 132 -132 24 -10 44 -25 44 -33 0 -33 92
-166 103 -149 1 2 14 49 29 104 14 55 34 121 44 148 18 45 18 49 2 75 -40 63
-68 129 -68 163 0 53 46 136 92 167 58 38 143 42 209 12 l49 -23 49 23 c39 18
61 22 109 18 83 -6 135 -41 169 -115 34 -74 28 -136 -22 -208 -19 -28 -35 -58
-35 -67 0 -8 12 -43 26 -79 14 -35 34 -100 44 -144 l17 -80 36 38 c20 21 44
59 53 86 15 40 24 50 60 65 49 20 120 92 130 131 11 43 -22 67 -102 74 l-66 6
-24 83 c-83 286 -267 432 -506 400z"/>
<path d="M444 832 c-20 -13 -26 -49 -10 -55 9 -4 17 2 21 14 8 23 23 25 31 4
8 -21 34 -19 34 3 0 35 -45 55 -76 34z"/>
<path d="M772 828 c-16 -16 -15 -48 2 -48 8 0 16 7 20 15 8 21 23 19 31 -4 4
-12 12 -18 21 -14 16 6 10 42 -10 55 -17 12 -51 9 -64 -4z"/>
<path d="M382 758 c-16 -16 -15 -33 3 -48 13 -11 15 -7 15 24 0 40 -1 41 -18
24z"/>
</g>
</svg>
